# xmcd
#
# Track frame offsets: 
#        150
#        12643
#        24600
#        36660
#        47165
#        57780
#        70668
#        80808
#        91630
#        101985
#        115895
#        127390
#        139465
#        149710
#        162593
#        172845
#        183893
#        194815
#        206020
#        216657
#        228352
#        239925
#        252612
#        264947
#        274205
#        286297
#        296332
#        308417
#
# Disc length: 4264 seconds
#
# Revision: 0
# Processed by: cddbd v1.5.2PL0 Copyright (c) Steve Scherf et al.
# Submitted via: ExactAudioCopy v1.0b1
#
DISCID=ca10a61c
DTITLE=Reno and Smiley - Early Years 1951 -1959
DYEAR=2009
DGENRE=Bluegrass
TTITLE0=Double Banjo Blues
TTITLE1=Reno Ride
TTITLE2=Banjo Riff
TTITLE3=Banjo Signal
TTITLE4=Mack's Hoedown
TTITLE5=Jesus Answers My Prayers
TTITLE6=Get Behind Me Satan
TTITLE7=Home Sweet Home
TTITLE8=Green Mountain Hop
TTITLE9=If It Takes Me A Lifetime
TTITLE10=Country Boy Rock N' Roll
TTITLE11=I Know You're Married
TTITLE12=No Longer A Sweetheart Of Mine
TTITLE13=Forgotten Men
TTITLE14=Never Get To Hold You In My Arms Anymore
TTITLE15=Kneel Down
TTITLE16=Cumberland Gap
TTITLE17=Remington Ride
TTITLE18=Richmond Ruckus
TTITLE19=When You And I Were Young, Maggie
TTITLE20=Unwanted Love
TTITLE21=Better Luck Next Time
TTITLE22=Wall Around Your Heart
TTITLE23=Another Day
TTITLE24=Banjo Special
TTITLE25=Country Latin Special
TTITLE26=Get Ready
TTITLE27=Keep Me Humble
EXTD=
EXTT0=
EXTT1=
EXTT2=
EXTT3=
EXTT4=
EXTT5=
EXTT6=
EXTT7=
EXTT8=
EXTT9=
EXTT10=
EXTT11=
EXTT12=
EXTT13=
EXTT14=
EXTT15=
EXTT16=
EXTT17=
EXTT18=
EXTT19=
EXTT20=
EXTT21=
EXTT22=
EXTT23=
EXTT24=
EXTT25=
EXTT26=
EXTT27=
PLAYORDER=
